<svg width="280" height="280" viewBox="0 0 280 280" fill="none" xmlns="http://www.w3.org/2000/svg">
<path d="M251.282 163.89C248.852 168.555 245.957 172.934 242.681 177.022C233.693 188.278 221.871 197.333 209.014 203.969C191.486 213.019 172.065 217.846 152.566 220.854C140.839 222.668 129.018 223.85 117.168 224.393C113.853 224.549 110.526 224.65 107.2 224.661C106.578 224.661 105.957 224.661 105.33 224.661C95.3504 224.611 85.3936 223.732 75.7952 221.089C71.1696 219.817 66.6168 218.098 62.316 215.925C54.1624 211.809 46.8936 206.064 41.68 198.61C33.7168 187.231 31.2472 171.579 37.4016 159.125C40.5208 152.797 45.9024 148.009 47.1904 140.997C48.5512 133.611 47.7448 125.799 44.8496 118.866C40.3528 108.103 31.0792 99.4007 28.8112 87.9543C26.6664 77.1407 31.6168 65.6159 40 58.4535C48.3832 51.2911 59.7232 48.1887 70.7496 48.3847C94.9416 48.8215 113.074 62.5135 128.542 79.9575C130.009 81.6095 131.459 83.2839 132.904 84.9639C140.206 93.4255 147.447 101.993 156.374 108.669C167.07 116.66 180.918 121.711 193.866 118.429C197.293 117.561 200.552 116.145 203.929 115.114C208.823 113.619 213.97 112.992 219.082 113.193C226.575 113.49 234.012 115.579 240.502 119.348C257.582 129.282 260.007 147.174 251.282 163.89Z" fill="#373B3D"/>
<path d="M204.629 64.249H69.445C66.646 64.249 64.377 66.518 64.377 69.317V204.501C64.377 207.3 66.646 209.569 69.445 209.569H204.629C207.428 209.569 209.697 207.3 209.697 204.501V69.317C209.697 66.518 207.428 64.249 204.629 64.249Z" fill="#B2B2B2"/>
<path d="M103.558 69.874L103.54 103.401L70.0129 103.384L70.0289 72.7573C70.0297 71.1557 71.3296 69.8628 72.9256 69.8636L103.552 69.8796L103.558 69.874Z" fill="white" stroke="#373B3D" stroke-miterlimit="10"/>
<path d="M137.061 103.395L137.078 69.8682L103.551 69.8506L103.533 103.378L137.061 103.395Z" fill="#373B3D" stroke="#373B3D" stroke-miterlimit="10"/>
<path d="M170.593 103.39L170.61 69.8623L137.083 69.8447L137.066 103.372L170.593 103.39Z" fill="#373B3D" stroke="#373B3D" stroke-miterlimit="10"/>
<path d="M204.135 72.7465L204.119 103.373L170.592 103.355L170.61 69.8281L201.236 69.8442C202.838 69.845 204.13 71.1449 204.13 72.7409L204.135 72.7465Z" fill="#373B3D" stroke="#373B3D" stroke-miterlimit="10"/>
<path d="M103.518 136.938L103.535 103.411L70.008 103.394L69.9904 136.921L103.518 136.938Z" fill="white" stroke="#373B3D" stroke-miterlimit="10"/>
<path d="M137.038 136.927L137.056 103.399L103.528 103.382L103.511 136.909L137.038 136.927Z" fill="white" stroke="#373B3D" stroke-miterlimit="10"/>
<path d="M170.57 136.927L170.588 103.399L137.061 103.382L137.043 136.909L170.57 136.927Z" fill="white" stroke="#373B3D" stroke-miterlimit="10"/>
<path d="M204.091 136.916L204.108 103.389L170.581 103.371L170.564 136.898L204.091 136.916Z" fill="white" stroke="#373B3D" stroke-miterlimit="10"/>
<path d="M103.501 170.454L103.519 136.927L69.9914 136.909L69.9738 170.436L103.501 170.454Z" fill="white" stroke="#373B3D" stroke-miterlimit="10"/>
<path d="M137.022 170.448L137.039 136.921L103.512 136.903L103.494 170.431L137.022 170.448Z" fill="#373B3D" stroke="#373B3D" stroke-miterlimit="10"/>
<path d="M170.554 170.442L170.571 136.915L137.044 136.897L137.027 170.425L170.554 170.442Z" fill="white" stroke="#373B3D" stroke-miterlimit="10"/>
<path d="M204.074 170.431L204.092 136.904L170.565 136.887L170.547 170.414L204.074 170.431Z" fill="#373B3D" stroke="#373B3D" stroke-miterlimit="10"/>
<path d="M103.49 170.465L103.473 203.992L72.8465 203.976C71.2449 203.975 69.952 202.675 69.9529 201.079L69.9689 170.453L103.496 170.47L103.49 170.465Z" fill="white" stroke="#373B3D" stroke-miterlimit="10"/>
<path d="M136.999 203.986L137.017 170.459L103.489 170.441L103.472 203.969L136.999 203.986Z" fill="#373B3D" stroke="#373B3D" stroke-miterlimit="10"/>
<path d="M170.531 203.974L170.549 170.447L137.022 170.43L137.004 203.957L170.531 203.974Z" fill="white" stroke="#373B3D" stroke-miterlimit="10"/>
<path d="M204.07 170.442L204.054 201.069C204.053 202.67 202.753 203.963 201.157 203.962L170.53 203.946L170.548 170.419L204.075 170.437L204.07 170.442Z" fill="white" stroke="#373B3D" stroke-miterlimit="10"/>
<path d="M242.681 177.022C233.693 188.278 221.872 197.333 209.014 203.969C191.486 213.019 172.065 217.846 152.566 220.853C140.84 222.667 129.018 223.849 117.168 224.392C113.853 224.549 110.527 224.65 107.2 224.661H105.33C95.3508 224.611 85.394 223.731 75.7956 221.088C71.17 219.817 66.6172 218.098 62.3164 215.925L69.5012 158.402L102.508 90.1769L132.904 84.9633L204.125 72.7441L219.083 113.193L242.681 177.022Z" fill="url(#paint0_linear_2696_143558)"/>
<path d="M102.295 142.665L107.06 175.487L79.5309 167.546L77.4141 138.426L102.39 136.897L102.295 142.665Z" fill="#3A8FBC"/>
<path d="M209.726 99.7695C229.275 89.4879 209.726 85.5791 209.726 85.5791V99.7695Z" fill="#3A8FBC"/>
<path d="M64.3386 69.2052C64.3386 66.3548 66.6514 64.042 69.5018 64.042H204.423C208.684 64.042 209.597 66.2876 208.992 69.2108C208.068 73.6628 203.616 79.6884 202.082 81.7828C197.103 88.5812 190.899 94.366 184.699 100.022C174.703 109.139 164.489 118.166 152.841 125.043C142.531 131.13 130.575 132.944 119.163 135.929C109.083 138.567 93.5874 143.528 89.4266 154.196C88.7658 155.893 88.3962 157.73 88.6146 159.539C89.1634 164.069 93.4194 166.953 97.4122 168.297C99.7922 169.098 102.273 169.658 104.468 170.873C105.398 171.388 106.283 172.038 106.837 172.94C107.918 174.698 107.498 177.011 106.563 178.848C104.261 183.367 99.8986 184.884 95.273 185.943C91.9298 186.704 88.469 186.71 85.0418 186.71C82.7962 186.71 80.5506 186.71 78.305 186.71C75.3818 186.71 72.4418 186.71 69.569 187.253C66.6962 187.796 63.8682 188.922 61.729 190.91C59.5898 192.898 58.2122 195.832 58.5426 198.733C58.873 201.634 61.1186 204.35 64.0082 204.781C61.7458 205.212 59.0858 203.594 57.9098 201.712C56.3474 199.215 56.7282 196.017 57.165 193.105C57.7138 189.454 58.2962 185.864 58.2962 182.152C58.6042 176.378 58.9122 170.604 59.2258 164.836C59.965 151.049 60.7042 137.268 61.4434 123.48C62.1042 111.104 62.7706 98.7228 63.4314 86.3468C63.7394 80.646 64.0418 74.9452 64.3498 69.2444C64.3498 69.2276 64.3498 69.2164 64.3498 69.1996L64.3386 69.2052Z" fill="#81C4E7"/>
<mask id="mask0_2696_143558" style="mask-type:luminance" maskUnits="userSpaceOnUse" x="56" y="64" width="154" height="141">
<path d="M64.3386 69.2052C64.3386 66.3548 66.6514 64.042 69.5018 64.042H204.423C208.684 64.042 209.597 66.2876 208.992 69.2108C208.068 73.6628 203.616 79.6884 202.082 81.7828C197.103 88.5812 190.899 94.366 184.699 100.022C174.703 109.139 164.489 118.166 152.841 125.043C142.531 131.13 130.575 132.944 119.163 135.929C109.083 138.567 93.5874 143.528 89.4266 154.196C88.7658 155.893 88.3962 157.73 88.6146 159.539C89.1634 164.069 93.4194 166.953 97.4122 168.297C99.7922 169.098 102.273 169.658 104.468 170.873C105.398 171.388 106.283 172.038 106.837 172.94C107.918 174.698 107.498 177.011 106.563 178.848C104.261 183.367 99.8986 184.884 95.273 185.943C91.9298 186.704 88.469 186.71 85.0418 186.71C82.7962 186.71 80.5506 186.71 78.305 186.71C75.3818 186.71 72.4418 186.71 69.569 187.253C66.6962 187.796 63.8682 188.922 61.729 190.91C59.5898 192.898 58.2122 195.832 58.5426 198.733C58.873 201.634 61.1186 204.35 64.0082 204.781C61.7458 205.212 59.0858 203.594 57.9098 201.712C56.3474 199.215 56.7282 196.017 57.165 193.105C57.7138 189.454 58.2962 185.864 58.2962 182.152C58.6042 176.378 58.9122 170.604 59.2258 164.836C59.965 151.049 60.7042 137.268 61.4434 123.48C62.1042 111.104 62.7706 98.7228 63.4314 86.3468C63.7394 80.646 64.0418 74.9452 64.3498 69.2444C64.3498 69.2276 64.3498 69.2164 64.3498 69.1996L64.3386 69.2052Z" fill="white"/>
</mask>
<g mask="url(#mask0_2696_143558)">
<path d="M156.162 122.999C172.139 122.047 188.121 121.089 204.098 120.137L219.884 53.5479C169.759 57.0479 119.628 60.5423 69.502 64.0423" fill="#43A6DA"/>
</g>
<path d="M90.7587 164.142C90.7587 164.142 83.1707 160.255 90.7587 149.66L85.7635 106.63C85.6459 105.639 84.1787 105.723 84.1787 106.719V151.811C84.1787 156.761 86.6427 161.381 90.7531 164.136L90.7587 164.142Z" fill="#43A7DB" stroke="#43A7DB" stroke-miterlimit="10"/>
<path d="M81.1828 99.4394C81.6084 103.757 81.6364 108.097 81.2724 112.415C81.1996 113.311 82.5996 113.305 82.6724 112.415C83.0364 108.091 83.0028 103.751 82.5828 99.4394C82.4932 98.549 81.0932 98.5434 81.1828 99.4394Z" fill="#43A7DB"/>
<path d="M209.16 98.779C209.16 98.779 223.423 95.5198 213.908 87.5958C204.394 79.6718 189.392 95.6878 189.392 95.6878L204.416 64.0479H206.875C209.58 64.0479 211.976 65.795 212.805 68.371L218.612 86.5038C220.046 90.9726 217.666 95.7719 213.236 97.3399L209.16 98.779Z" fill="#43A7DB"/>
<mask id="mask1_2696_143558" style="mask-type:luminance" maskUnits="userSpaceOnUse" x="189" y="64" width="31" height="35">
<path d="M209.16 98.779C209.16 98.779 223.423 95.5198 213.908 87.5958C204.394 79.6718 189.392 95.6878 189.392 95.6878L204.416 64.0479H206.875C209.58 64.0479 211.976 65.795 212.805 68.371L218.612 86.5038C220.046 90.9726 217.666 95.7719 213.236 97.3399L209.16 98.779Z" fill="white"/>
</mask>
<g mask="url(#mask1_2696_143558)">
<path d="M202.977 64.0427L203.845 74.4139C204.086 77.2643 205.178 79.9747 206.976 82.1979L209.72 85.5803L221.39 96.0971L227.276 79.6443L220.785 58.6611L202.972 64.0427H202.977Z" fill="#3F9DCE"/>
</g>
<path d="M69.501 64.042L92.8922 84.9188C100.167 91.4148 108.18 97.0372 116.754 101.68L156.155 123.004" fill="#43A7DB"/>
<path d="M69.501 64.042L92.8922 84.9188C100.167 91.4148 108.18 97.0372 116.754 101.68L156.155 123.004" stroke="#43A7DB" stroke-miterlimit="10"/>
<path d="M64.3488 204.994V189.051C64.3488 189.051 56.5592 192.528 58.3736 199.808C59.7736 205.414 64.3488 205 64.3488 205V204.994Z" fill="#3A8FBC"/>
<path d="M109.099 231.37L162.383 224.073L165.143 239.518L111.859 246.815L109.099 231.37Z" fill="#FFD02E"/>
<path d="M102.396 232.288L109.592 231.303L112.347 246.748L105.151 247.733L102.396 232.288Z" fill="#F3C021"/>
<path d="M98.8618 232.77L102.541 232.266L105.302 247.71L101.623 248.214C99.6794 248.483 97.8594 247.318 97.557 245.616L95.8994 236.331C95.597 234.629 96.9242 233.033 98.8674 232.77H98.8618Z" fill="#085E97"/>
<path d="M165.144 239.518L177.744 229.404C178.192 229.046 178.029 228.396 177.447 228.24L162.383 224.073L165.144 239.518Z" fill="#FFF9E4"/>
<path d="M173.919 232.473L173.129 227.041L177.536 228.284C178.152 228.458 178.309 229.152 177.822 229.522L173.919 232.479V232.473Z" fill="#373B3D"/>
<path d="M164.147 235.307L111.3 242.307" stroke="#F3C021" stroke-width="2" stroke-miterlimit="10"/>
<path d="M163.184 229.914L110.337 236.92" stroke="#F3C021" stroke-width="2" stroke-miterlimit="10"/>
<path d="M19.3701 70.2134C30.9957 67.4806 33.2133 65.263 35.9517 53.6318C38.6845 65.2574 40.9021 67.475 52.5333 70.2134C40.9077 72.9462 38.6901 75.1638 35.9517 86.795C33.2189 75.1694 31.0013 72.9518 19.3701 70.2134Z" fill="#FFD02E"/>
<path d="M48.1654 34.7707C51.8614 35.3867 54.051 34.7539 56.8454 32.2507C57.6966 31.4891 59.0406 32.2283 58.8558 33.3539C58.2398 37.0499 58.8726 39.2395 61.3758 42.0339C62.1374 42.8851 61.3982 44.2291 60.2726 44.0443C56.5766 43.4283 54.387 44.0611 51.5926 46.5643C50.7414 47.3259 49.3974 46.5867 49.5822 45.4611C50.1982 41.7651 49.5654 39.5755 47.0622 36.7811C46.3006 35.9299 47.0398 34.5859 48.1654 34.7707Z" fill="#FFD02E"/>
<path d="M235.418 77.2463C239.114 77.8623 241.304 77.2295 244.098 74.7263C244.95 73.9647 246.294 74.7039 246.109 75.8295C245.493 79.5255 246.126 81.7151 248.629 84.5095C249.39 85.3607 248.651 86.7047 247.526 86.5199C243.83 85.9039 241.64 86.5367 238.846 89.0399C237.994 89.8015 236.65 89.0623 236.835 87.9367C237.451 84.2407 236.818 82.0511 234.315 79.2567C233.554 78.4055 234.293 77.0615 235.418 77.2463Z" fill="#FFD02E"/>
<defs>
<linearGradient id="paint0_linear_2696_143558" x1="109.356" y1="111.939" x2="201.297" y2="236.768" gradientUnits="userSpaceOnUse">
<stop offset="0.08" stop-color="#FFE9AF"/>
<stop offset="0.15" stop-color="#FFECB8" stop-opacity="0.82"/>
<stop offset="0.23" stop-color="#FFEFC3" stop-opacity="0.63"/>
<stop offset="0.32" stop-color="#FFF2CC" stop-opacity="0.46"/>
<stop offset="0.41" stop-color="#FFF4D3" stop-opacity="0.32"/>
<stop offset="0.51" stop-color="#FFF6DA" stop-opacity="0.2"/>
<stop offset="0.61" stop-color="#FFF8DE" stop-opacity="0.11"/>
<stop offset="0.71" stop-color="#FFF9E2" stop-opacity="0.05"/>
<stop offset="0.83" stop-color="#FFF9E4" stop-opacity="0.01"/>
<stop offset="1" stop-color="#FFFAE5" stop-opacity="0"/>
</linearGradient>
</defs>
</svg>
